# Blender v2.77 (sub 0) OBJ File: 'sphere.blend'
# www.blender.org
mtllib cube_1.mtl
o Cube.001
v -0.629269 1.370733 -3.575817
v -0.629269 -0.629268 -1.575817
v -0.629269 1.370732 -1.575817
v 1.370731 1.370733 -3.575817
v -0.629269 -0.629267 -3.575817
v 1.370731 1.370732 -1.575817
v 1.370731 -0.629267 -3.575817
v 1.370731 -0.629268 -1.575817
vn -1.000000 0.000000 0.000000
vn 0.000000 0.000000 -1.000000
vn 1.000000 0.000000 0.000000
vn 0.000000 -0.000000 1.000000
vn 0.000000 -1.000000 -0.000000
vn 0.000000 1.000000 0.000000
usemtl None
s 1
f 1//1 2//1 3//1
f 4//2 5//2 1//2
f 6//3 7//3 4//3
f 3//4 8//4 6//4
f 5//5 8//5 2//5
f 4//6 3//6 6//6
f 1//1 5//1 2//1
f 4//2 7//2 5//2
f 6//3 8//3 7//3
f 3//4 2//4 8//4
f 5//5 7//5 8//5
f 4//6 1//6 3//6
