# Blender v2.71 (sub 0) OBJ File: 'lectnica.blend'
# www.blender.org
mtllib lectnica.mtl
o lestnica_10_Cube.005
v 0.150000 -0.075000 -0.500000
v 0.150000 -0.075000 0.500000
v -0.147177 -0.075000 0.500000
v -0.147177 -0.075000 -0.500000
v 0.148603 0.072564 -0.500000
v 0.148603 0.072564 0.500000
v -0.120000 0.075000 0.500000
v -0.120000 0.075000 -0.500000
v -0.145000 0.068301 0.500000
v -0.145000 0.068301 -0.500000
v -0.163301 0.050000 0.500000
v -0.163301 0.050000 -0.500000
v -0.147177 0.025000 0.500000
v -0.147177 0.025000 -0.500000
v 0.444383 0.070129 -0.500000
v 0.444383 0.070129 0.500000
v 0.442603 0.219284 -0.500000
v 0.442603 0.219284 0.500000
v 0.174383 0.220129 0.500000
v 0.174383 0.220129 -0.500000
v 0.149383 0.213430 0.500000
v 0.149383 0.213430 -0.500000
v 0.131082 0.195129 0.500000
v 0.131082 0.195129 -0.500000
v 0.147206 0.170129 0.500000
v 0.147206 0.170129 -0.500000
v 1.032383 0.363568 -0.500000
v 1.032383 0.363568 0.500000
v 0.736602 0.366004 0.500000
v 0.736602 0.366004 -0.500000
v 1.030115 0.511360 -0.500000
v 1.030115 0.511360 0.500000
v 0.762383 0.513568 0.500000
v 0.762383 0.513568 -0.500000
v 0.737383 0.506869 0.500000
v 0.737383 0.506869 -0.500000
v 0.719081 0.488568 0.500000
v 0.719082 0.488568 -0.500000
v 0.735205 0.463568 0.500000
v 0.735205 0.463568 -0.500000
v 0.737999 0.218440 -0.500000
v 0.737999 0.218440 0.500000
v 0.468000 0.368440 0.500000
v 0.468000 0.368440 -0.500000
v 0.443000 0.361741 0.500000
v 0.443000 0.361741 -0.500000
v 0.424698 0.343440 0.500000
v 0.424698 0.343440 -0.500000
v 0.440822 0.318440 0.500000
v 0.440822 0.318440 -0.500000
v 1.619408 0.654281 -0.500000
v 1.619408 0.654281 0.500000
v 1.323628 0.656717 0.500000
v 1.323628 0.656717 -0.500000
v 1.617628 0.803437 -0.500000
v 1.617628 0.803437 0.500000
v 1.349408 0.804281 0.500000
v 1.349408 0.804281 -0.500000
v 1.324408 0.797583 0.500000
v 1.324408 0.797583 -0.500000
v 1.306107 0.779281 0.500000
v 1.306107 0.779281 -0.500000
v 1.322231 0.754281 0.500000
v 1.322231 0.754281 -0.500000
v 1.325025 0.509153 -0.500000
v 1.325025 0.509153 0.500000
v 1.055025 0.659153 0.500000
v 1.055025 0.659153 -0.500000
v 1.030025 0.652454 0.500000
v 1.030025 0.652454 -0.500000
v 1.011724 0.634153 0.500000
v 1.011724 0.634153 -0.500000
v 1.027848 0.609153 0.500000
v 1.027848 0.609153 -0.500000
v 2.207407 0.947721 -0.500000
v 2.207407 0.947721 0.500000
v 1.911627 0.950157 0.500000
v 1.911627 0.950157 -0.500000
v 2.203581 1.091213 -0.500000
v 2.203581 1.091213 0.500000
v 1.937408 1.097721 0.500000
v 1.937408 1.097721 -0.500000
v 1.912408 1.091022 0.500000
v 1.912408 1.091022 -0.500000
v 1.894106 1.072721 0.500000
v 1.894106 1.072721 -0.500000
v 1.910230 1.047721 0.500000
v 1.910230 1.047721 -0.500000
v 1.913025 0.802592 -0.500000
v 1.913025 0.802592 0.500000
v 1.643025 0.952592 0.500000
v 1.643025 0.952592 -0.500000
v 1.618025 0.945894 0.500000
v 1.618025 0.945894 -0.500000
v 1.599723 0.927592 0.500000
v 1.599723 0.927592 -0.500000
v 1.615847 0.902592 0.500000
v 1.615847 0.902592 -0.500000
v 2.791314 1.229833 -0.500000
v 2.791314 1.229833 0.500000
v 2.495534 1.232268 0.500000
v 2.495534 1.232268 -0.500000
v 2.791314 1.379833 -0.499999
v 2.791314 1.379833 0.500000
v 2.521314 1.379833 0.500000
v 2.521314 1.379833 -0.500000
v 2.496315 1.373134 0.500000
v 2.496315 1.373134 -0.500000
v 2.478013 1.354833 0.500000
v 2.478013 1.354833 -0.500000
v 2.494137 1.329833 0.500000
v 2.494137 1.329833 -0.500000
v 2.496931 1.084704 -0.500000
v 2.496931 1.084704 0.500000
v 2.226931 1.234704 0.500000
v 2.226931 1.234704 -0.500000
v 2.201931 1.228005 0.500000
v 2.201931 1.228005 -0.500000
v 2.183630 1.209704 0.500000
v 2.183630 1.209704 -0.500000
v 2.199754 1.184704 0.500000
v 2.199754 1.184704 -0.500000
vt 0.401795 0.049583
vt 0.351949 0.100802
vt 0.301909 0.049696
vt 0.123775 0.826556
vt 0.123775 0.684289
vt 0.794985 0.684288
vt 0.578495 0.815177
vt 0.578495 0.898674
vt 0.253207 0.898674
vt 0.898088 1.000000
vt 0.811592 1.000000
vt 0.811592 0.510844
vt 0.296804 0.995487
vt 0.296804 0.218364
vt 0.624592 0.218364
vt 0.168733 -0.002452
vt 0.831521 -0.002453
vt 0.831522 0.990500
vt 0.356501 0.003322
vt 0.334832 0.015901
vt 0.349924 0.001377
vt 0.340556 0.004561
vt 0.401811 0.052242
vt 0.356517 0.098506
vt 0.301923 0.052132
vt 0.334847 0.085927
vt 0.349941 0.100451
vt 0.340572 0.097266
vt 0.794985 0.826555
vt 0.253207 0.815178
vt 0.898088 0.510844
vt 0.624593 0.995487
vt 0.168734 0.990502
vt 0.351962 0.001023
vt 0.256545 0.003210
vt 0.201480 0.050195
vt 0.234876 0.015789
vt 0.201490 0.051636
vt 0.256558 0.098621
vt 0.234888 0.086043
vt 0.251993 0.100688
vt 0.249968 0.001265
vt 0.240601 0.004450
vt 0.249982 0.100566
vt 0.240613 0.097382
vt 0.252003 0.001140
vt 0.149065 0.002378
vt 0.155641 0.004322
vt 0.139697 0.005562
vt 0.133973 0.016901
vt 0.155650 0.097513
vt 0.149074 0.099458
vt 0.139706 0.096273
vt 0.133981 0.084934
vt 0.101057 0.051140
vt 0.151089 0.101799
vt 0.101052 0.050694
vt 0.151095 0.000032
vt 0.051137 0.101684
vt 0.000032 0.051180
vt 0.055689 0.004209
vt 0.034021 0.016787
vt 0.049113 0.002264
vt 0.039746 0.005448
vt 0.055693 0.097629
vt 0.000032 0.050657
vt 0.034024 0.085051
vt 0.049117 0.099574
vt 0.039749 0.096390
vt 0.051138 0.000149
vt 0.456316 0.002980
vt 0.434646 0.015559
vt 0.456333 0.098843
vt 0.434663 0.086264
vt 0.501684 0.049469
vt 0.451764 0.100464
vt 0.449739 0.001035
vt 0.440371 0.004220
vt 0.501700 0.052353
vt 0.449757 0.100788
vt 0.440388 0.097604
vt 0.451778 0.001358
vt 0.800742 0.049570
vt 0.752617 0.099585
vt 0.702570 0.048470
vt 0.757170 0.002087
vt 0.735497 0.014669
vt 0.750593 0.000142
vt 0.741223 0.003327
vt 0.800751 0.052248
vt 0.757181 0.099730
vt 0.702582 0.053349
vt 0.735509 0.087149
vt 0.750604 0.101675
vt 0.741234 0.098490
vt 0.752628 0.002235
vt 0.602125 0.048969
vt 0.551727 0.100579
vt 0.556280 0.003091
vt 0.534609 0.015671
vt 0.549703 0.001146
vt 0.540334 0.004331
vt 0.602140 0.052850
vt 0.556296 0.098729
vt 0.534625 0.086149
vt 0.549720 0.100674
vt 0.540351 0.097489
vt 0.551742 0.001241
vt 0.657198 0.001977
vt 0.635526 0.014557
vt 0.657212 0.099841
vt 0.635540 0.087261
vt 0.652645 0.099470
vt 0.650621 0.000032
vt 0.641252 0.003217
vt 0.650635 0.101786
vt 0.641266 0.098601
vt 0.652658 0.002350
vt 0.853541 0.004173
vt 0.831868 0.016755
vt 0.853549 0.097643
vt 0.831876 0.085062
vt 0.898918 0.050669
vt 0.848990 0.101675
vt 0.846963 0.002228
vt 0.837593 0.005413
vt 0.898924 0.051148
vt 0.846972 0.099588
vt 0.837602 0.096403
vt 0.848997 0.000145
vt 0.999968 0.050180
vt 0.948970 0.101787
vt 0.953522 0.004283
vt 0.931847 0.016865
vt 0.946943 0.002337
vt 0.937573 0.005523
vt 0.999968 0.051636
vt 0.953525 0.097531
vt 0.931852 0.084950
vt 0.946947 0.099476
vt 0.937577 0.096291
vt 0.948973 0.000032
vt 0.000000 1.000000
vt -0.002645 0.002204
vt 0.997353 0.002204
vt 0.999999 0.752675
vt 0.000001 0.652703
vt 0.999999 0.652703
vt 1.000000 0.000000
vt 1.000000 0.051120
vt 0.000002 0.051120
vt 0.999998 1.000000
vt 0.999998 0.849041
vt 0.999998 0.949013
vt 0.000000 0.949013
vt 0.000000 0.752675
vt 0.000000 0.849041
vt 0.000001 0.451811
vt 0.999999 0.451811
vt 0.000001 0.551782
vt 0.000001 0.151092
vt 1.000000 0.151092
vt 0.000001 0.252013
vt 0.999999 0.351984
vt 0.000001 0.351984
vt 0.999999 0.252013
vt 0.999999 0.551782
vt 0.000002 0.000000
vn -0.000000 0.000000 -1.000000
vn -0.258800 0.965900 0.000000
vn -0.707100 0.707100 -0.000000
vn -0.840400 -0.542000 -0.000000
vn -0.999900 -0.014300 -0.000000
vn 0.008200 1.000000 0.000000
vn -0.000000 0.000000 1.000000
vn 0.009100 1.000000 0.000000
vn -0.999800 -0.018000 0.000000
vn 0.003100 1.000000 0.000000
vn -1.000000 -0.000000 -0.000000
vn -0.999700 -0.023200 0.000000
vn 0.024400 0.999700 0.000000
vn -0.999200 -0.040900 0.000000
vn 0.000000 1.000000 0.000000
vn 1.000000 0.000000 0.000000
vn 0.442200 -0.896900 0.000000
vn 0.000000 -1.000000 0.000000
vn 0.427700 -0.903900 0.000000
vn 0.450900 -0.892600 0.000000
vn 0.445400 -0.895300 0.000000
g lestnica_10_Cube.005_Beton
usemtl Beton
s off
f 31/1/1 27/2/1 30/3/1
f 34/4/2 36/5/2 35/6/2
f 36/7/3 38/8/3 37/9/3
f 38/10/4 40/11/4 39/12/4
f 29/13/5 39/14/5 40/15/5
f 34/16/6 33/17/6 32/18/6
f 34/19/1 30/3/1 40/20/1
f 36/21/1 34/19/1 38/22/1
f 38/22/1 34/19/1 40/20/1
f 32/23/7 33/24/7 29/25/7
f 29/25/7 33/24/7 39/26/7
f 33/24/7 35/27/7 37/28/7
f 33/24/7 37/28/7 39/26/7
f 34/19/1 31/1/1 30/3/1
f 33/29/2 34/4/2 35/6/2
f 35/30/3 36/7/3 37/9/3
f 37/31/4 38/10/4 39/12/4
f 30/32/5 29/13/5 40/15/5
f 31/33/6 34/16/6 32/18/6
f 28/34/7 32/23/7 29/25/7
g lestnica_10_Cube.005_Beton_beton.JPG.005
usemtl Beton_beton.JPG.005
f 44/35/1 17/36/1 50/37/1
f 18/38/7 43/39/7 49/40/7
f 44/16/8 43/17/8 29/18/8
f 44/4/2 46/5/2 45/6/2
f 46/7/3 48/8/3 47/9/3
f 48/10/4 50/11/4 49/12/4
f 30/3/1 41/41/1 17/36/1
f 46/42/1 44/35/1 48/43/1
f 48/43/1 44/35/1 50/37/1
f 29/25/7 43/39/7 18/38/7
f 43/39/7 45/44/7 47/45/7
f 43/39/7 47/45/7 49/40/7
f 18/13/9 49/14/9 50/15/9
f 30/33/8 44/16/8 29/18/8
f 43/29/2 44/4/2 45/6/2
f 45/30/3 46/7/3 47/9/3
f 47/31/4 48/10/4 49/12/4
f 44/35/1 30/3/1 17/36/1
f 42/46/7 29/25/7 18/38/7
f 17/32/9 18/13/9 50/15/9
g lestnica_10_Cube.005_Beton_beton.JPG.002
usemtl Beton_beton.JPG.002
f 19/29/2 20/4/2 22/5/2
f 22/7/3 24/8/3 23/9/3
f 24/10/4 26/11/4 25/12/4
f 20/16/10 19/17/10 18/18/10
f 22/47/1 20/48/1 24/49/1
f 24/49/1 20/48/1 26/50/1
f 19/51/7 21/52/7 23/53/7
f 19/51/7 23/53/7 25/54/7
f 18/38/7 19/51/7 6/55/7
f 6/55/7 19/51/7 25/54/7
f 17/36/1 15/56/1 5/57/1
f 20/48/1 5/57/1 26/50/1
f 6/13/5 25/14/5 26/15/5
f 21/6/2 19/29/2 22/5/2
f 21/30/3 22/7/3 23/9/3
f 23/31/4 24/10/4 25/12/4
f 17/33/10 20/16/10 18/18/10
f 16/58/7 18/38/7 6/55/7
f 20/48/1 17/36/1 5/57/1
f 5/32/5 6/13/5 26/15/5
g lestnica_10_Cube.005_Beton_beton.JPG
usemtl Beton_beton.JPG
f 5/57/1 1/59/1 4/60/1
f 8/4/2 10/5/2 9/6/2
f 9/30/3 10/7/3 12/8/3
f 12/10/4 14/11/4 13/12/4
f 13/14/11 14/15/11 4/32/11
f 8/16/8 7/17/8 6/18/8
f 8/61/1 4/60/1 14/62/1
f 10/63/1 8/61/1 12/64/1
f 12/64/1 8/61/1 14/62/1
f 6/55/7 7/65/7 3/66/7
f 3/66/7 7/65/7 13/67/7
f 7/65/7 9/68/7 11/69/7
f 7/65/7 11/69/7 13/67/7
f 8/61/1 5/57/1 4/60/1
f 7/29/2 8/4/2 9/6/2
f 11/9/3 9/30/3 12/8/3
f 11/31/4 12/10/4 13/12/4
f 3/13/11 13/14/11 4/32/11
f 5/33/8 8/16/8 6/18/8
f 2/70/7 6/55/7 3/66/7
g lestnica_10_Cube.005_Beton_beton.JPG.009
usemtl Beton_beton.JPG.009
f 68/71/1 31/1/1 74/72/1
f 32/23/7 67/73/7 73/74/7
f 32/13/12 73/14/12 74/15/12
f 68/16/8 67/17/8 53/18/8
f 68/4/2 70/5/2 69/6/2
f 70/7/3 72/8/3 71/9/3
f 72/10/4 74/11/4 73/12/4
f 54/75/1 65/76/1 31/1/1
f 70/77/1 68/71/1 72/78/1
f 72/78/1 68/71/1 74/72/1
f 53/79/7 67/73/7 32/23/7
f 67/73/7 69/80/7 71/81/7
f 67/73/7 71/81/7 73/74/7
f 31/32/12 32/13/12 74/15/12
f 54/33/8 68/16/8 53/18/8
f 67/29/2 68/4/2 69/6/2
f 69/30/3 70/7/3 71/9/3
f 71/31/4 72/10/4 73/12/4
f 68/71/1 54/75/1 31/1/1
f 66/82/7 53/79/7 32/23/7
g lestnica_10_Cube.005_Beton_beton.JPG.010
usemtl Beton_beton.JPG.010
f 79/83/1 75/84/1 78/85/1
f 82/4/2 84/5/2 83/6/2
f 84/7/3 86/8/3 85/9/3
f 86/10/4 88/11/4 87/12/4
f 77/13/5 87/14/5 88/15/5
f 82/16/13 81/17/13 80/18/13
f 82/86/1 78/85/1 88/87/1
f 84/88/1 82/86/1 86/89/1
f 86/89/1 82/86/1 88/87/1
f 80/90/7 81/91/7 77/92/7
f 77/92/7 81/91/7 87/93/7
f 81/91/7 83/94/7 85/95/7
f 81/91/7 85/95/7 87/93/7
f 82/86/1 79/83/1 78/85/1
f 81/29/2 82/4/2 83/6/2
f 83/30/3 84/7/3 85/9/3
f 85/31/4 86/10/4 87/12/4
f 78/32/5 77/13/5 88/15/5
f 79/33/13 82/16/13 80/18/13
f 76/96/7 80/90/7 77/92/7
g lestnica_10_Cube.005_Beton_beton.JPG.008
usemtl Beton_beton.JPG.008
f 55/97/1 51/98/1 54/75/1
f 58/4/2 60/5/2 59/6/2
f 60/7/3 62/8/3 61/9/3
f 62/10/4 64/11/4 63/12/4
f 53/13/5 63/14/5 64/15/5
f 58/16/10 57/17/10 56/18/10
f 58/99/1 54/75/1 64/100/1
f 60/101/1 58/99/1 62/102/1
f 62/102/1 58/99/1 64/100/1
f 56/103/7 57/104/7 53/79/7
f 53/79/7 57/104/7 63/105/7
f 57/104/7 59/106/7 61/107/7
f 57/104/7 61/107/7 63/105/7
f 58/99/1 55/97/1 54/75/1
f 57/29/2 58/4/2 59/6/2
f 59/30/3 60/7/3 61/9/3
f 61/31/4 62/10/4 63/12/4
f 54/32/5 53/13/5 64/15/5
f 55/33/10 58/16/10 56/18/10
f 52/108/7 56/103/7 53/79/7
g lestnica_10_Cube.005_Beton_beton.JPG.011
usemtl Beton_beton.JPG.011
f 92/109/1 55/97/1 98/110/1
f 56/103/7 91/111/7 97/112/7
f 56/13/9 97/14/9 98/15/9
f 92/16/8 91/17/8 77/18/8
f 92/4/2 94/5/2 93/6/2
f 94/7/3 96/8/3 95/9/3
f 96/10/4 98/11/4 97/12/4
f 78/85/1 89/113/1 55/97/1
f 94/114/1 92/109/1 96/115/1
f 96/115/1 92/109/1 98/110/1
f 77/92/7 91/111/7 56/103/7
f 91/111/7 93/116/7 95/117/7
f 91/111/7 95/117/7 97/112/7
f 55/32/9 56/13/9 98/15/9
f 78/33/8 92/16/8 77/18/8
f 91/29/2 92/4/2 93/6/2
f 93/30/3 94/7/3 95/9/3
f 95/31/4 96/10/4 97/12/4
f 92/109/1 78/85/1 55/97/1
f 90/118/7 77/92/7 56/103/7
g lestnica_10_Cube.005_Beton_beton.JPG.017
usemtl Beton_beton.JPG.017
f 116/119/1 79/83/1 122/120/1
f 80/90/7 115/121/7 121/122/7
f 80/13/14 121/14/14 122/15/14
f 116/16/8 115/17/8 101/18/8
f 116/4/2 118/5/2 117/6/2
f 118/7/3 120/8/3 119/9/3
f 120/10/4 122/11/4 121/12/4
f 102/123/1 113/124/1 79/83/1
f 118/125/1 116/119/1 120/126/1
f 120/126/1 116/119/1 122/120/1
f 101/127/7 115/121/7 80/90/7
f 115/121/7 117/128/7 119/129/7
f 115/121/7 119/129/7 121/122/7
f 79/32/14 80/13/14 122/15/14
f 102/33/8 116/16/8 101/18/8
f 115/29/2 116/4/2 117/6/2
f 117/30/3 118/7/3 119/9/3
f 119/31/4 120/10/4 121/12/4
f 116/119/1 102/123/1 79/83/1
f 114/130/7 101/127/7 80/90/7
g lestnica_10_Cube.005_Beton_beton.JPG.016
usemtl Beton_beton.JPG.016
f 103/131/1 99/132/1 102/123/1
f 106/4/2 108/5/2 107/6/2
f 108/7/3 110/8/3 109/9/3
f 110/10/4 112/11/4 111/12/4
f 101/13/5 111/14/5 112/15/5
f 106/16/15 105/17/15 104/18/15
f 106/133/1 102/123/1 112/134/1
f 108/135/1 106/133/1 110/136/1
f 110/136/1 106/133/1 112/134/1
f 104/137/7 105/138/7 101/127/7
f 101/127/7 105/138/7 111/139/7
f 105/138/7 107/140/7 109/141/7
f 105/138/7 109/141/7 111/139/7
f 106/133/1 103/131/1 102/123/1
f 105/29/2 106/4/2 107/6/2
f 107/30/3 108/7/3 109/9/3
f 109/31/4 110/10/4 111/12/4
f 102/32/5 101/13/5 112/15/5
f 103/33/15 106/16/15 104/18/15
f 100/142/7 104/137/7 101/127/7
g lestnica_10_Cube.005_Beton_beton.JPG.026
usemtl Beton_beton.JPG.026
f 79/83/1 113/124/1 75/84/1
f 76/96/7 114/130/7 80/90/7
f 75/84/1 89/113/1 78/85/1
f 77/92/7 90/118/7 76/96/7
f 101/127/7 114/130/7 100/142/7
f 99/132/1 113/124/1 102/123/1
f 52/108/7 90/118/7 56/103/7
f 53/79/7 66/82/7 52/108/7
f 28/34/7 66/82/7 32/23/7
f 29/25/7 42/46/7 28/34/7
f 16/58/7 42/46/7 18/38/7
f 2/70/7 16/58/7 6/55/7
f 55/97/1 89/113/1 51/98/1
f 51/98/1 65/76/1 54/75/1
f 31/1/1 65/76/1 27/2/1
f 27/2/1 41/41/1 30/3/1
f 17/36/1 41/41/1 15/56/1
f 5/57/1 15/56/1 1/59/1
g lestnica_10_Cube.005_Pobelka
usemtl Pobelka
f 104/143/16 100/144/16 99/145/16
f 75/146/17 90/147/17 89/148/17
f 4/149/18 1/150/18 2/151/18
f 103/152/16 104/143/16 99/145/16
f 113/153/17 99/154/17 100/155/17
f 76/156/19 75/146/19 114/157/19
f 66/158/17 65/159/17 52/160/17
f 16/161/20 15/162/20 42/163/20
f 16/161/17 2/151/17 1/150/17
f 27/164/17 28/165/17 41/166/17
f 89/148/20 90/147/20 51/167/20
f 100/155/17 114/157/17 113/153/17
f 90/147/17 75/146/17 76/156/17
f 28/165/21 65/159/21 66/158/21
f 1/150/17 15/162/17 16/161/17
f 65/159/21 28/165/21 27/164/21
f 3/168/18 4/149/18 2/151/18
f 114/157/19 75/146/19 113/153/19
f 65/159/17 51/167/17 52/160/17
f 51/167/20 90/147/20 52/160/20
f 28/165/17 42/163/17 41/166/17
f 42/163/20 15/162/20 41/166/20
