# Blender v2.71 (sub 0) OBJ File: 'untitled.blend'
# www.blender.org
mtllib hueta_2.mtl
o Cube.003
v 1.128727 1.515299 -1.145393
v 1.128727 1.515299 0.854607
v -0.871273 1.515299 0.854606
v -0.871272 1.515299 -1.145394
v 1.128728 3.515299 -1.145393
v 1.128727 3.515299 0.854607
v -0.871273 3.515299 0.854606
v -0.871273 3.515299 -1.145393
vn 0.000000 -1.000000 -0.000000
vn 0.000000 1.000000 0.000000
vn 1.000000 -0.000000 0.000000
vn -0.000000 -0.000000 1.000000
vn -1.000000 -0.000000 -0.000000
vn 0.000000 0.000000 -1.000000
g Cube.003_Cube.003_Material
usemtl Material
s off
f 2//1 3//1 4//1
f 8//2 7//2 6//2
f 1//3 5//3 6//3
f 2//4 6//4 7//4
f 7//5 8//5 4//5
f 1//6 4//6 8//6
f 1//1 2//1 4//1
f 5//2 8//2 6//2
f 2//3 1//3 6//3
f 3//4 2//4 7//4
f 3//5 7//5 4//5
f 5//6 1//6 8//6
o Cube.002
v 1.246783 -0.475984 -0.975289
v 1.246783 -0.475984 1.024711
v -0.753217 -0.475984 1.024710
v -0.753216 -0.475984 -0.975290
v 1.246784 1.524016 -0.975289
v 1.246783 1.524016 1.024711
v -0.753217 1.524016 1.024710
v -0.753217 1.524016 -0.975289
vn 0.000000 -1.000000 0.000000
vn 0.000000 1.000000 0.000000
vn 1.000000 -0.000000 0.000000
vn -0.000000 -0.000000 1.000000
vn -1.000000 -0.000000 -0.000000
vn 0.000000 0.000000 -1.000000
g Cube.002_Cube.002_Material
usemtl Material
s off
f 10//7 11//7 12//7
f 16//8 15//8 14//8
f 9//9 13//9 14//9
f 10//10 14//10 15//10
f 15//11 16//11 12//11
f 9//12 12//12 16//12
f 9//7 10//7 12//7
f 13//8 16//8 14//8
f 10//9 9//9 14//9
f 11//10 10//10 15//10
f 11//11 15//11 12//11
f 13//12 9//12 16//12
o Cube.001
v 1.215908 -0.119852 -3.044146
v 1.215908 -0.119852 -1.044146
v -0.784092 -0.119852 -1.044146
v -0.784092 -0.119852 -3.044146
v 1.215908 1.880148 -3.044145
v 1.215907 1.880148 -1.044145
v -0.784092 1.880148 -1.044146
v -0.784092 1.880148 -3.044146
vn 0.000000 -1.000000 0.000000
vn 0.000000 1.000000 -0.000000
vn 1.000000 -0.000000 0.000000
vn -0.000000 -0.000000 1.000000
vn -1.000000 -0.000000 -0.000000
vn 0.000000 0.000000 -1.000000
g Cube.001_Cube.001_Material
usemtl Material
s off
f 18//13 19//13 20//13
f 24//14 23//14 22//14
f 17//15 21//15 22//15
f 18//16 22//16 23//16
f 23//17 24//17 20//17
f 17//18 20//18 24//18
f 17//13 18//13 20//13
f 21//14 24//14 22//14
f 18//15 17//15 22//15
f 19//16 18//16 23//16
f 19//17 23//17 20//17
f 21//18 17//18 24//18
o Cube
v 1.000000 -1.000000 1.079558
v 1.000000 -1.000000 3.079558
v -1.000000 -1.000000 3.079558
v -1.000000 -1.000000 1.079558
v 1.000000 1.000000 1.079559
v 0.999999 1.000000 3.079559
v -1.000000 1.000000 3.079558
v -1.000000 1.000000 1.079558
vn 0.000000 -1.000000 0.000000
vn 0.000000 1.000000 0.000000
vn 1.000000 0.000000 0.000000
vn -0.000000 -0.000000 1.000000
vn -1.000000 -0.000000 -0.000000
vn 0.000000 0.000000 -1.000000
g Cube_Cube_Material
usemtl Material
s off
f 26//19 27//19 28//19
f 32//20 31//20 30//20
f 29//21 30//21 26//21
f 26//22 30//22 31//22
f 31//23 32//23 28//23
f 25//24 28//24 32//24
f 25//19 26//19 28//19
f 29//20 32//20 30//20
f 25//21 29//21 26//21
f 27//22 26//22 31//22
f 27//23 31//23 28//23
f 29//24 25//24 32//24
o Cube.004
v 3.664015 -0.475984 -0.975289
v 3.664015 -0.475984 1.024711
v 1.664015 -0.475984 1.024710
v 1.664015 -0.475984 -0.975290
v 3.664015 1.524016 -0.975289
v 3.664014 1.524016 1.024711
v 1.664014 1.524016 1.024710
v 1.664015 1.524016 -0.975289
vn 0.000000 -1.000000 0.000000
vn 0.000000 1.000000 -0.000000
vn 1.000000 -0.000000 0.000000
vn -0.000000 -0.000000 1.000000
vn -1.000000 -0.000000 -0.000000
vn 0.000000 0.000000 -1.000000
g Cube.004_Cube.004_Material.001
usemtl Material.001
s off
f 34//25 35//25 36//25
f 40//26 39//26 38//26
f 33//27 37//27 38//27
f 34//28 38//28 39//28
f 39//29 40//29 36//29
f 33//30 36//30 40//30
f 33//25 34//25 36//25
f 37//26 40//26 38//26
f 34//27 33//27 38//27
f 35//28 34//28 39//28
f 35//29 39//29 36//29
f 37//30 33//30 40//30
o Cube.005
v -0.843627 -0.475984 -0.975289
v -0.843627 -0.475984 1.024711
v -2.843627 -0.475984 1.024710
v -2.843627 -0.475984 -0.975290
v -0.843627 1.524016 -0.975289
v -0.843628 1.524016 1.024711
v -2.843627 1.524016 1.024710
v -2.843627 1.524016 -0.975289
vn 0.000000 -1.000000 -0.000000
vn 0.000000 1.000000 -0.000000
vn 1.000000 -0.000000 0.000000
vn -0.000000 -0.000000 1.000000
vn -1.000000 -0.000000 -0.000000
vn 0.000000 0.000000 -1.000000
g Cube.005_Cube.005_Material.002
usemtl Material.002
s off
f 42//31 43//31 44//31
f 45//32 48//32 47//32
f 41//33 45//33 46//33
f 42//34 46//34 47//34
f 47//35 48//35 44//35
f 41//36 44//36 48//36
f 41//31 42//31 44//31
f 46//32 45//32 47//32
f 42//33 41//33 46//33
f 43//34 42//34 47//34
f 43//35 47//35 44//35
f 45//36 41//36 48//36
o Cube.006
v 1.246783 -2.493907 -0.975289
v 1.246783 -2.493907 1.024711
v -0.753217 -2.493907 1.024710
v -0.753216 -2.493907 -0.975290
v 1.246784 -0.493908 -0.975289
v 1.246783 -0.493908 1.024711
v -0.753217 -0.493908 1.024710
v -0.753217 -0.493908 -0.975289
vn 0.000000 -1.000000 0.000000
vn 0.000000 1.000000 0.000000
vn 1.000000 -0.000000 0.000000
vn -0.000000 -0.000000 1.000000
vn -1.000000 -0.000000 -0.000000
vn 0.000000 0.000000 -1.000000
g Cube.006_Cube.006_Material.003
usemtl Material.003
s off
f 50//37 51//37 52//37
f 56//38 55//38 54//38
f 49//39 53//39 54//39
f 50//40 54//40 55//40
f 55//41 56//41 52//41
f 49//42 52//42 56//42
f 49//37 50//37 52//37
f 53//38 56//38 54//38
f 50//39 49//39 54//39
f 51//40 50//40 55//40
f 51//41 55//41 52//41
f 53//42 49//42 56//42
